<svg width="1920" height="1080" viewBox="0 0 1920 1080" fill="none" xmlns="http://www.w3.org/2000/svg">
<g clip-path="url(#clip0_120_309)">
<rect width="1920" height="1080" fill="white"/>
<path d="M1923.36 882.549C1885 905.983 1844.97 926.218 1802.69 941.624C1776.13 951.301 1748.82 958.419 1721.06 962.998C1723.92 965.847 1726.76 968.727 1729.57 971.616C1753.13 995.84 1775.42 1021.46 1801.51 1043.05C1808.99 1048.92 1816.8 1054.35 1824.66 1059.71L1942.68 1079.87V870.422C1936.28 874.531 1929.85 878.59 1923.36 882.559V882.549Z" fill="url(#paint0_linear_120_309)"/>
<path d="M1444.27 819.765C1457.2 821.585 1470.04 824.174 1482.69 827.283C1493.99 830.063 1505.17 833.312 1516.28 836.801C1517.31 836.391 1518.36 836.061 1519.41 835.841C1523.99 834.891 1528.49 833.642 1532.88 832.102C1539.79 829.163 1546.36 825.514 1552.53 821.235C1559.63 815.696 1566.08 809.388 1571.88 802.5C1578.79 793.512 1584.65 783.765 1589.5 773.517C1592.79 765.819 1595.53 757.892 1597.7 749.794C1599.29 743.865 1603.68 739.206 1608.78 736.087C1614.18 732.788 1620.91 732.658 1626.86 734.178C1632.4 735.597 1637.85 740.336 1640.57 745.265C1643.6 750.753 1644.07 757.362 1642.48 763.34C1639.16 775.747 1634.37 787.614 1628.8 799.181C1624.55 807.998 1619.55 816.436 1613.75 824.324C1607 833.502 1599.59 842.309 1591.06 849.897C1587.11 853.417 1582.96 856.726 1578.64 859.795C1606.22 872.402 1632.12 887.738 1656.26 906.183C1662.79 911.171 1669.22 916.3 1675.55 921.549C1680.23 921.259 1684.9 920.889 1689.57 920.449C1726.55 916.3 1762.73 907.153 1797.53 894.026C1800.81 892.736 1804.08 891.427 1807.33 890.077C1839.61 876.651 1871.13 861.744 1900.96 843.549C1913.74 835.751 1930.22 825.964 1942.69 817.666V419L1570.36 463.848C1545.55 466.838 1525.2 484.933 1519.32 509.226C1467.34 723.84 1455.58 773.058 1444.27 819.765Z" fill="url(#paint1_linear_120_309)"/>
<path d="M1639.19 951.811C1614.3 932.056 1587.49 914.941 1558.6 901.644C1540.62 893.826 1522.04 887.638 1503.34 881.759C1484.27 875.751 1464.94 870.492 1445.25 866.993C1441.23 866.373 1437.2 865.834 1433.16 865.384C1427.96 886.638 1423.07 906.493 1418.8 923.768C1410.28 958.309 1432.87 992.82 1467.94 998.809L1734.54 1044.34C1724.26 1033.95 1714.25 1023.28 1704.15 1012.68C1683.69 991.191 1662.18 970.596 1639.19 951.821V951.811Z" fill="url(#paint2_linear_120_309)"/>
<path d="M142.374 301.335H144.129V306.326C142.85 307.404 141.077 307.951 139.286 307.951C135.356 307.951 132.468 305.192 132.468 301.409C132.468 297.627 135.356 294.865 139.321 294.865C141.35 294.865 143.066 295.54 144.238 296.837L143.106 297.969C142.046 296.945 140.84 296.489 139.395 296.489C136.433 296.489 134.295 298.553 134.295 301.406C134.295 304.26 136.433 306.323 139.375 306.323C140.452 306.323 141.459 306.087 142.374 305.499V301.332V301.335Z" fill="#004C77"/>
<path d="M156.169 307.805L153.41 303.875C153.154 303.892 152.88 303.912 152.606 303.912H149.445V307.805H147.618V295.013H152.609C155.936 295.013 157.945 296.694 157.945 299.471C157.945 301.443 156.922 302.868 155.132 303.51L158.165 307.805H156.172H156.169ZM156.115 299.471C156.115 297.644 154.89 296.6 152.552 296.6H149.445V302.358H152.552C154.892 302.358 156.115 301.298 156.115 299.471Z" fill="#004C77"/>
<path d="M169.051 304.604H162.252L160.844 307.803H158.963L164.755 295.01H166.565L172.377 307.803H170.459L169.051 304.604ZM168.409 303.145L165.65 296.877L162.891 303.145H168.409ZM166.753 293.747H165.108L166.784 291.595H169.014L166.753 293.747Z" fill="#004C77"/>
<path d="M176.1 296.6V301.061H182.513V302.632H176.1V307.802H174.273V295.01H183.3V296.6H176.1Z" fill="#004C77"/>
<path d="M185.877 295.01H187.704V307.802H185.877V295.01Z" fill="#004C77"/>
<path d="M190.497 301.406C190.497 297.624 193.385 294.862 197.278 294.862C199.251 294.862 200.97 295.537 202.138 296.854L200.95 298.006C199.964 296.965 198.758 296.489 197.35 296.489C194.462 296.489 192.324 298.573 192.324 301.406C192.324 304.239 194.462 306.323 197.35 306.323C198.758 306.323 199.964 305.83 200.95 304.787L202.138 305.938C200.97 307.255 199.251 307.948 197.259 307.948C193.385 307.948 190.497 305.189 190.497 301.406Z" fill="#004C77"/>
<path d="M203.432 301.406C203.432 297.661 206.32 294.862 210.251 294.862C214.181 294.862 217.032 297.641 217.032 301.406C217.032 305.172 214.144 307.948 210.251 307.948C206.357 307.948 203.432 305.152 203.432 301.406ZM215.202 301.406C215.202 298.573 213.081 296.489 210.251 296.489C207.42 296.489 205.259 298.573 205.259 301.406C205.259 304.239 207.38 306.323 210.251 306.323C213.121 306.323 215.202 304.239 215.202 301.406Z" fill="#004C77"/>
<path d="M215.875 187.36C215.678 186.602 215.005 186.023 214.224 185.947C213.953 185.918 213.691 185.947 213.455 186.018C213.455 186.018 213.452 186.019 213.446 186.021C213.272 186.075 213.113 186.149 212.97 186.246C211.702 186.827 210.356 187.255 208.951 187.517C207.911 187.711 206.836 187.853 205.741 187.811C203.76 187.731 202.446 187.497 202.446 187.497C202.446 187.497 202.332 187.477 202.272 187.463C201.796 187.372 200.4 187.092 199.145 186.673C199.051 186.639 198.943 186.602 198.832 186.565C194.696 185.12 190.255 184.322 185.634 184.293C185.634 184.29 185.632 184.29 185.632 184.285C185.606 184.288 185.577 184.288 185.549 184.288C185.54 184.288 185.537 184.288 185.532 184.29H185.52C185.466 184.288 185.418 184.288 185.364 184.288C184.87 184.288 184.377 184.296 183.887 184.316H183.879C183.143 184.319 182.499 184.308 181.969 184.288C181.897 184.288 181.832 184.285 181.772 184.285H181.738C181.498 184.282 181.265 184.273 181.031 184.256C180.806 184.245 180.583 184.228 180.361 184.205C180.338 184.205 180.316 184.205 180.296 184.202C173.335 184.202 168.791 182.84 165.83 181.001C164.105 180.077 162.258 177.72 162.258 177.72C160.998 175.953 160.545 174.189 160.388 172.966C160.314 172.661 160.271 172.344 160.271 172.019C160.271 171.791 160.294 171.569 160.331 171.349C160.331 171.344 160.331 171.338 160.331 171.338C160.65 169.451 162.269 168.009 164.236 167.96C164.27 167.957 164.302 167.952 164.336 167.952C164.393 167.952 164.447 167.96 164.504 167.963C167.01 168 169.461 168.265 171.835 168.738C172.75 168.921 173.694 168.585 174.29 167.866C175.099 166.891 175.863 165.88 176.581 164.828C176.852 164.429 177.12 164.021 177.38 163.613C177.525 163.383 177.667 163.152 177.81 162.921C178.067 162.496 177.878 161.94 177.411 161.769C177.077 161.647 176.718 161.513 176.467 161.413C173.668 160.298 171.02 158.887 168.56 157.214C168.27 157.012 167.979 156.812 167.691 156.601C166.474 155.772 165.203 155.008 163.894 154.31C165.356 152.343 166.99 150.521 168.794 148.868C168.811 148.851 170.73 147.084 171.2 146.579C172.175 145.536 173.053 144.419 173.839 143.253C180.102 142.458 185.871 139.479 190.164 134.79C191.315 133.533 192.336 132.176 193.217 130.748C200.269 126.512 205.049 119.15 206.015 111.006C206.149 109.877 205.342 108.854 204.214 108.72C203.085 108.586 202.061 109.393 201.927 110.521C201.392 115.042 199.456 119.272 196.509 122.664C196.945 120.737 197.173 118.753 197.173 116.741C197.173 113.503 196.6 110.339 195.471 107.335C195.072 106.271 193.886 105.733 192.82 106.132C191.757 106.531 191.218 107.719 191.617 108.783C192.572 111.322 193.057 113.999 193.057 116.741C193.057 127.182 186.096 135.987 176.345 138.581C177.676 135.369 178.383 131.902 178.383 128.342C178.383 124.782 177.639 121.054 176.171 117.684C175.718 116.644 174.506 116.165 173.463 116.618C172.423 117.072 171.944 118.283 172.397 119.326C173.637 122.174 174.264 125.207 174.264 128.342C174.264 134.092 172.103 139.57 168.184 143.772C167.933 144.04 166.528 145.356 166.009 145.832C163.823 147.833 161.868 150.057 160.14 152.465C158.413 150.054 156.457 147.833 154.271 145.832C153.75 145.356 152.344 144.04 152.096 143.772C148.177 139.573 146.016 134.092 146.016 128.342C146.016 125.207 146.643 122.174 147.883 119.326C148.337 118.283 147.861 117.072 146.817 116.618C145.777 116.165 144.563 116.641 144.109 117.684C142.641 121.054 141.9 124.639 141.9 128.342C141.9 132.045 142.607 135.369 143.938 138.581C134.19 135.987 127.226 127.182 127.226 116.741C127.226 114.002 127.711 111.322 128.666 108.783C129.065 107.719 128.529 106.534 127.463 106.132C126.4 105.733 125.214 106.271 124.812 107.335C123.683 110.339 123.11 113.503 123.11 116.741C123.11 118.753 123.338 120.737 123.774 122.664C120.827 119.272 118.894 115.039 118.356 110.518C118.222 109.39 117.198 108.583 116.07 108.717C114.941 108.851 114.134 109.874 114.268 111.003C115.234 119.147 120.018 126.507 127.069 130.745C127.95 132.176 128.968 133.53 130.122 134.787C134.415 139.476 140.184 142.455 146.447 143.25C147.233 144.416 148.109 145.533 149.083 146.576C149.551 147.078 151.469 148.848 151.489 148.865C152.028 149.358 152.544 149.869 153.051 150.39C150.357 149.829 147.567 149.524 144.705 149.524C142.764 149.524 140.848 149.663 138.976 149.926C142.351 153.614 146.395 156.678 150.913 158.933C146.897 163.28 143.816 168.502 141.983 174.277C141.142 176.936 140.563 179.71 140.284 182.572C140.153 183.9 140.082 185.254 140.082 186.622C140.082 187.4 140.104 188.173 140.147 188.939C140.372 192.907 141.416 196.79 143.152 200.367C149.34 213.12 152.812 227.432 152.812 242.556C152.812 242.972 152.809 243.386 152.803 243.799C152.78 245.455 154.126 246.806 155.785 246.809H156.053C157.703 246.809 159.04 245.475 159.04 243.825V216.423C159.04 214.699 160.511 213.359 162.232 213.476C167.879 213.861 175.025 212.952 184.642 209.973C187.108 213.353 190.078 216.344 193.447 218.823C193.772 219.063 196.041 220.807 198.441 222.349C199.972 223.333 201.913 224.316 202.281 224.501C202.509 224.615 202.74 224.727 202.971 224.838C204.615 225.57 204.615 228.275 203.113 233.962C202.318 236.972 201.306 240.398 200.531 242.955C199.949 244.873 201.386 246.809 203.39 246.806C204.698 246.806 205.853 245.951 206.24 244.7L212.776 223.475C212.027 222.962 211.311 222.401 210.638 221.794C206.46 218.031 204.094 212.615 204.074 206.991C204.074 206.946 204.074 206.9 204.074 206.854C204.074 205.005 204.196 203.183 204.436 201.399C204.895 197.964 207.061 195.037 210.125 193.412C210.316 193.309 210.504 193.207 210.693 193.098C211.881 192.411 212.981 191.585 213.971 190.647C214.407 190.234 215.336 189.336 215.718 188.726C215.954 188.347 215.997 187.845 215.869 187.349L215.875 187.36Z" fill="#006096"/>
<path d="M102 254.18H109.762C114.773 254.18 118.159 254.377 119.926 254.767C121.691 255.158 123.033 255.802 123.954 256.694C124.875 257.586 125.448 258.581 125.679 259.678C125.909 260.773 126.023 262.928 126.023 266.137V278.012C126.023 281.057 125.855 283.092 125.519 284.118C125.183 285.144 124.595 285.948 123.757 286.527C122.919 287.105 121.885 287.51 120.653 287.741C119.422 287.972 117.566 288.086 115.086 288.086H102V254.18ZM112.373 259.981V282.282C113.866 282.282 114.787 282.029 115.132 281.518C115.477 281.008 115.651 279.623 115.651 277.362V264.191C115.651 262.654 115.594 261.671 115.477 261.238C115.363 260.804 115.098 260.488 114.687 260.286C114.277 260.083 113.504 259.981 112.37 259.981H112.373Z" fill="#004C77"/>
<path d="M129.889 254.18H147.185V260.967H140.261V267.395H146.74V273.845H140.261V281.302H147.875V288.089H129.889V254.183V254.18Z" fill="#004C77"/>
<path d="M161.229 254.18V281.299H167.537V288.086H150.856V254.18H161.229Z" fill="#004C77"/>
<path d="M180.421 254.18V288.086H170.048V254.18H180.421Z" fill="#004C77"/>
<path d="M184.586 254.18H191.928C196.823 254.18 200.138 254.34 201.871 254.662C203.604 254.984 205.015 255.802 206.109 257.122C207.201 258.441 207.748 260.545 207.748 263.435C207.748 266.075 207.361 267.848 206.591 268.754C205.819 269.661 204.299 270.205 202.033 270.388C204.085 270.821 205.465 271.4 206.172 272.126C206.879 272.853 207.318 273.52 207.489 274.127C207.66 274.735 207.748 276.408 207.748 279.144V288.086H198.114V276.818C198.114 275.002 197.946 273.879 197.609 273.446C197.273 273.013 196.389 272.796 194.961 272.796V288.083H184.589V254.177L184.586 254.18ZM194.958 259.981V267.52C196.124 267.52 196.942 267.383 197.41 267.112C197.877 266.839 198.111 265.958 198.111 264.464V262.6C198.111 261.526 197.886 260.819 197.433 260.485C196.979 260.149 196.156 259.984 194.956 259.984L194.958 259.981Z" fill="#004C77"/>
<path d="M222.134 254.18V288.086H211.762V254.18H222.134Z" fill="#004C77"/>
<path d="M250 274.031C250 277.437 249.906 279.848 249.718 281.265C249.53 282.682 248.937 283.976 247.945 285.15C246.95 286.324 245.608 287.222 243.917 287.852C242.224 288.479 240.255 288.796 238.006 288.796C235.757 288.796 233.952 288.499 232.253 287.906C230.554 287.314 229.186 286.424 228.152 285.236C227.117 284.05 226.501 282.759 226.305 281.362C226.108 279.965 226.008 277.522 226.008 274.033V268.233C226.008 264.826 226.102 262.415 226.29 260.998C226.478 259.582 227.071 258.288 228.063 257.113C229.058 255.939 230.401 255.041 232.091 254.411C233.781 253.784 235.754 253.468 238.003 253.468C240.252 253.468 242.056 253.764 243.755 254.357C245.454 254.95 246.822 255.839 247.857 257.028C248.891 258.213 249.507 259.508 249.704 260.901C249.9 262.298 250 264.741 250 268.23V274.031ZM239.627 262.891C239.627 261.315 239.525 260.306 239.32 259.864C239.114 259.425 238.692 259.205 238.051 259.205C237.51 259.205 237.093 259.382 236.805 259.738C236.518 260.095 236.375 261.144 236.375 262.891V278.722C236.375 280.692 236.469 281.906 236.657 282.365C236.845 282.827 237.284 283.058 237.974 283.058C238.664 283.058 239.131 282.793 239.328 282.263C239.525 281.732 239.625 280.47 239.625 278.471V262.891H239.627Z" fill="#004C77"/>
</g>
<defs>
<linearGradient id="paint0_linear_120_309" x1="1831.87" y1="442.174" x2="1831.87" y2="1028.57" gradientUnits="userSpaceOnUse">
<stop stop-color="#3DA2DB"/>
<stop offset="1" stop-color="#006096"/>
</linearGradient>
<linearGradient id="paint1_linear_120_309" x1="1693.47" y1="442.174" x2="1693.47" y2="1028.57" gradientUnits="userSpaceOnUse">
<stop stop-color="#3DA2DB"/>
<stop offset="1" stop-color="#006096"/>
</linearGradient>
<linearGradient id="paint2_linear_120_309" x1="1575.77" y1="442.174" x2="1575.77" y2="1028.57" gradientUnits="userSpaceOnUse">
<stop stop-color="#3DA2DB"/>
<stop offset="1" stop-color="#006096"/>
</linearGradient>
<clipPath id="clip0_120_309">
<rect width="1920" height="1080" fill="white"/>
</clipPath>
</defs>
</svg>
