<svg width="214" height="291" viewBox="0 0 214 291" fill="none" xmlns="http://www.w3.org/2000/svg">
<path d="M58.34 281.465H60.8667V288.647C59.025 290.198 56.4736 290.985 53.8976 290.985C48.2411 290.985 44.0859 287.015 44.0859 281.571C44.0859 276.128 48.2411 272.154 53.9469 272.154C56.8674 272.154 59.3367 273.126 61.0226 274.992L59.3942 276.621C57.8683 275.148 56.1332 274.492 54.0535 274.492C49.7917 274.492 46.7152 277.461 46.7152 281.567C46.7152 285.673 49.7917 288.643 54.0248 288.643C55.5753 288.643 57.0233 288.303 58.34 287.458V281.461V281.465Z" fill="#004C77"/>
<path d="M78.1931 290.776L74.2225 285.12C73.8533 285.144 73.4595 285.173 73.0657 285.173H68.5168V290.776H65.8875V272.367H73.0699C77.8568 272.367 80.7486 274.787 80.7486 278.782C80.7486 281.621 79.276 283.672 76.7 284.595L81.0644 290.776H78.1972H78.1931ZM78.1152 278.782C78.1152 276.153 76.3514 274.652 72.9878 274.652H68.5168V282.937H72.9878C76.3555 282.937 78.1152 281.412 78.1152 278.782Z" fill="#004C77"/>
<path d="M96.7295 286.17H86.9465L84.9201 290.772H82.2129L90.5479 272.363H93.1526L101.516 290.772H98.7558L96.7295 286.17ZM95.8065 284.07L91.8359 275.05L87.8653 284.07H95.8065ZM93.4233 270.546H91.0566L93.4685 267.449H96.6761L93.4233 270.546Z" fill="#004C77"/>
<path d="M106.873 274.652V281.071H116.103V283.331H106.873V290.772H104.244V272.363H117.235V274.652H106.873Z" fill="#004C77"/>
<path d="M120.943 272.363H123.572V290.772H120.943V272.363Z" fill="#004C77"/>
<path d="M127.592 281.567C127.592 276.124 131.747 272.149 137.35 272.149C140.189 272.149 142.662 273.122 144.344 275.017L142.634 276.674C141.214 275.177 139.479 274.492 137.453 274.492C133.298 274.492 130.221 277.49 130.221 281.567C130.221 285.645 133.298 288.643 137.453 288.643C139.479 288.643 141.214 287.933 142.634 286.432L144.344 288.089C142.662 289.984 140.189 290.981 137.322 290.981C131.747 290.981 127.592 287.011 127.592 281.567Z" fill="#004C77"/>
<path d="M146.206 281.567C146.206 276.177 150.361 272.149 156.018 272.149C161.674 272.149 165.776 276.149 165.776 281.567C165.776 286.986 161.621 290.981 156.018 290.981C150.415 290.981 146.206 286.957 146.206 281.567ZM163.143 281.567C163.143 277.49 160.091 274.492 156.018 274.492C151.945 274.492 148.836 277.49 148.836 281.567C148.836 285.645 151.887 288.643 156.018 288.643C160.149 288.643 163.143 285.645 163.143 281.567Z" fill="#004C77"/>
<path d="M164.111 117.451C163.828 116.36 162.86 115.527 161.736 115.416C161.346 115.375 160.969 115.416 160.629 115.519C160.629 115.519 160.625 115.52 160.616 115.523C160.366 115.601 160.136 115.708 159.931 115.847C158.106 116.684 156.17 117.299 154.148 117.677C152.65 117.955 151.104 118.161 149.529 118.099C146.678 117.984 144.787 117.648 144.787 117.648C144.787 117.648 144.623 117.619 144.537 117.599C143.852 117.467 141.842 117.065 140.037 116.462C139.902 116.413 139.746 116.36 139.586 116.307C133.634 114.227 127.243 113.078 120.594 113.037C120.594 113.033 120.59 113.033 120.59 113.025C120.553 113.029 120.512 113.029 120.471 113.029C120.459 113.029 120.455 113.029 120.447 113.033H120.43C120.352 113.029 120.283 113.029 120.205 113.029C119.495 113.029 118.785 113.041 118.08 113.07H118.068C117.009 113.074 116.082 113.058 115.319 113.029C115.217 113.029 115.122 113.025 115.036 113.025H114.987C114.642 113.021 114.306 113.009 113.97 112.984C113.646 112.968 113.326 112.943 113.006 112.91C112.973 112.91 112.94 112.91 112.911 112.906C102.895 112.906 96.3563 110.945 92.0944 108.3C89.6128 106.971 86.9547 103.578 86.9547 103.578C85.1417 101.035 84.4895 98.4961 84.2639 96.7364C84.1573 96.2975 84.0957 95.8422 84.0957 95.3746C84.0957 95.0464 84.1285 94.7265 84.1819 94.4107C84.1819 94.4025 84.1819 94.3942 84.1819 94.3942C84.6413 91.6788 86.9711 89.6032 89.8014 89.5335C89.8507 89.5294 89.8958 89.5212 89.945 89.5212C90.0271 89.5212 90.105 89.5335 90.187 89.5376C93.7926 89.5909 97.3202 89.9724 100.737 90.6533C102.054 90.9158 103.411 90.4318 104.269 89.3981C105.434 87.9953 106.533 86.5391 107.567 85.0255C107.956 84.4513 108.342 83.8647 108.715 83.2781C108.924 82.9459 109.13 82.6136 109.335 82.2814C109.704 81.6702 109.433 80.8703 108.76 80.6242C108.28 80.4478 107.764 80.2551 107.403 80.1115C103.375 78.5077 99.5639 76.4772 96.024 74.0694C95.6056 73.7782 95.1872 73.491 94.7729 73.1875C93.0214 71.9939 91.192 70.8946 89.3092 69.8896C91.4135 67.0593 93.7639 64.4382 96.3604 62.0591C96.385 62.0345 99.1455 59.4913 99.8223 58.7653C101.225 57.264 102.489 55.6561 103.621 53.9784C112.633 52.834 120.935 48.5475 127.112 41.7999C128.769 39.991 130.238 38.0385 131.505 35.9834C141.653 29.888 148.532 19.2929 149.923 7.57379C150.116 5.94944 148.955 4.47687 147.33 4.28408C145.706 4.09129 144.233 5.25212 144.041 6.87647C143.27 13.3821 140.484 19.4692 136.243 24.3505C136.871 21.5776 137.199 18.7227 137.199 15.8268C137.199 11.167 136.374 6.61395 134.75 2.29056C134.176 0.760559 132.469 -0.0146967 130.935 0.559567C129.405 1.13383 128.63 2.84432 129.204 4.37432C130.578 8.0291 131.276 11.8808 131.276 15.8268C131.276 30.852 121.259 43.5227 107.226 47.2554C109.142 42.6326 110.159 37.6447 110.159 32.5214C110.159 27.3982 109.089 22.0329 106.976 17.1845C106.324 15.6873 104.581 14.9982 103.079 15.6504C101.582 16.3026 100.893 18.0459 101.545 19.5472C103.329 23.645 104.232 28.0094 104.232 32.5214C104.232 40.7949 101.123 48.6788 95.4826 54.7249C95.1216 55.1105 93.0994 57.0056 92.3528 57.6906C89.2067 60.5701 86.3928 63.7696 83.907 67.2357C81.4213 63.7655 78.6074 60.5701 75.4613 57.6906C74.7106 57.0056 72.6884 55.1105 72.3315 54.7249C66.6914 48.6829 63.5822 40.7949 63.5822 32.5214C63.5822 28.0094 64.4846 23.645 66.2689 19.5472C66.9211 18.0459 66.2361 16.3026 64.7348 15.6504C63.2377 14.9982 61.4902 15.6832 60.8381 17.1845C58.7256 22.0329 57.6591 27.1931 57.6591 32.5214C57.6591 37.8498 58.6764 42.6326 60.5919 47.2554C46.5635 43.5227 36.5426 30.852 36.5426 15.8268C36.5426 11.8849 37.2399 8.0291 38.6141 4.37432C39.1883 2.84432 38.4172 1.13793 36.8831 0.559567C35.3531 -0.0146967 33.6467 0.760559 33.0683 2.29056C31.444 6.61395 30.6195 11.167 30.6195 15.8268C30.6195 18.7227 30.9476 21.5776 31.5752 24.3505C27.3339 19.4692 24.5528 13.378 23.7775 6.87237C23.5848 5.24802 22.1122 4.08719 20.4878 4.27998C18.8635 4.47276 17.7026 5.94534 17.8954 7.56969C19.286 19.2888 26.1689 29.8798 36.317 35.9793C37.5845 38.0385 39.0489 39.9869 40.7101 41.7958C46.8876 48.5434 55.1898 52.8299 64.2016 53.9743C65.3337 55.652 66.593 57.2599 67.9958 58.7612C68.6685 59.4831 71.4291 62.0304 71.4578 62.055C72.2331 62.7646 72.9755 63.4989 73.7057 64.2495C69.8294 63.4414 65.8136 63.0025 61.6954 63.0025C58.902 63.0025 56.1455 63.2035 53.4506 63.5809C58.3072 68.8887 64.1278 73.2983 70.6292 76.5428C64.8497 82.7982 60.4156 90.3129 57.778 98.6233C56.568 102.45 55.7353 106.441 55.3333 110.56C55.1446 112.471 55.0421 114.42 55.0421 116.389C55.0421 117.508 55.0749 118.62 55.1364 119.723C55.4605 125.433 56.9618 131.02 59.4598 136.168C68.365 154.52 73.3611 175.115 73.3611 196.88C73.3611 197.479 73.357 198.073 73.3488 198.668C73.316 201.051 75.2521 202.996 77.6394 203H78.0249C80.3999 203 82.3237 201.08 82.3237 198.705V159.274C82.3237 156.792 84.4403 154.864 86.9178 155.032C95.0437 155.586 105.327 154.278 119.167 149.991C122.715 154.856 126.989 159.159 131.838 162.728C132.305 163.072 135.57 165.582 139.024 167.802C141.227 169.217 144.02 170.632 144.549 170.898C144.877 171.063 145.21 171.223 145.542 171.382C147.909 172.437 147.909 176.329 145.747 184.513C144.603 188.844 143.146 193.775 142.031 197.454C141.194 200.215 143.261 203 146.145 202.996C148.028 202.996 149.689 201.765 150.247 199.964L159.652 169.422C158.574 168.683 157.544 167.875 156.576 167.002C150.563 161.587 147.158 153.794 147.129 145.701C147.129 145.635 147.129 145.569 147.129 145.504C147.129 142.842 147.306 140.22 147.65 137.653C148.311 132.71 151.428 128.497 155.838 126.159C156.112 126.012 156.383 125.864 156.654 125.708C158.364 124.719 159.948 123.53 161.371 122.18C161.999 121.586 163.336 120.294 163.886 119.416C164.226 118.87 164.288 118.148 164.103 117.435L164.111 117.451Z" fill="#006096"/>
<path d="M0.240967 213.607H11.4104C18.6215 213.607 23.4945 213.89 26.0377 214.452C28.5768 215.014 30.5088 215.941 31.8337 217.225C33.1586 218.509 33.9831 219.94 34.3153 221.52C34.6476 223.095 34.8116 226.196 34.8116 230.815V247.903C34.8116 252.284 34.5696 255.213 34.0856 256.689C33.6016 258.166 32.7566 259.323 31.5506 260.155C30.3447 260.988 28.8557 261.57 27.0837 261.903C25.3117 262.235 22.6413 262.399 19.0727 262.399H0.240967V213.607ZM15.1677 221.954V254.048C17.3171 254.048 18.642 253.683 19.1383 252.948C19.6347 252.214 19.8849 250.221 19.8849 246.968V228.013C19.8849 225.802 19.8028 224.387 19.6347 223.763C19.4706 223.14 19.0891 222.685 18.4984 222.393C17.9078 222.102 16.7962 221.954 15.1636 221.954H15.1677Z" fill="#004C77"/>
<path d="M40.374 213.607H65.2643V223.374H55.3008V232.624H64.6244V241.906H55.3008V252.637H66.2569V262.403H40.374V213.611V213.607Z" fill="#004C77"/>
<path d="M85.4741 213.607V252.632H94.5516V262.399H70.5474V213.607H85.4741Z" fill="#004C77"/>
<path d="M113.092 213.607V262.399H98.1653V213.607H113.092Z" fill="#004C77"/>
<path d="M119.085 213.607H129.651C136.694 213.607 141.465 213.837 143.959 214.3C146.453 214.764 148.483 215.941 150.058 217.84C151.629 219.739 152.417 222.767 152.417 226.926C152.417 230.724 151.859 233.276 150.751 234.58C149.64 235.884 147.454 236.668 144.193 236.93C147.146 237.554 149.131 238.387 150.149 239.433C151.166 240.479 151.797 241.438 152.044 242.312C152.29 243.186 152.417 245.594 152.417 249.531V262.399H138.552V246.184C138.552 243.571 138.31 241.955 137.826 241.332C137.342 240.708 136.071 240.397 134.016 240.397V262.395H119.089V213.603L119.085 213.607ZM134.012 221.954V232.804C135.689 232.804 136.867 232.607 137.539 232.217C138.212 231.824 138.548 230.556 138.548 228.407V225.724C138.548 224.178 138.224 223.16 137.572 222.68C136.92 222.196 135.734 221.959 134.008 221.959L134.012 221.954Z" fill="#004C77"/>
<path d="M173.119 213.607V262.399H158.192V213.607H173.119Z" fill="#004C77"/>
<path d="M213.219 242.173C213.219 247.075 213.084 250.545 212.813 252.583C212.542 254.622 211.689 256.484 210.261 258.174C208.83 259.864 206.898 261.156 204.465 262.063C202.029 262.965 199.195 263.421 195.958 263.421C192.722 263.421 190.125 262.994 187.681 262.141C185.236 261.288 183.267 260.008 181.778 258.297C180.289 256.591 179.403 254.733 179.12 252.723C178.837 250.713 178.693 247.198 178.693 242.177V233.83C178.693 228.928 178.829 225.458 179.099 223.419C179.37 221.38 180.223 219.518 181.651 217.828C183.082 216.138 185.014 214.846 187.447 213.94C189.879 213.037 192.718 212.582 195.954 212.582C199.19 212.582 201.787 213.008 204.232 213.862C206.676 214.715 208.645 215.995 210.134 217.705C211.623 219.411 212.509 221.274 212.792 223.279C213.075 225.289 213.219 228.805 213.219 233.825V242.173ZM198.292 226.143C198.292 223.874 198.144 222.422 197.849 221.786C197.554 221.155 196.947 220.839 196.024 220.839C195.244 220.839 194.646 221.093 194.231 221.606C193.817 222.119 193.612 223.628 193.612 226.143V248.924C193.612 251.759 193.747 253.506 194.018 254.167C194.289 254.831 194.92 255.163 195.913 255.163C196.906 255.163 197.578 254.782 197.861 254.019C198.144 253.256 198.288 251.439 198.288 248.563V226.143H198.292Z" fill="#004C77"/>
</svg>
