<svg width="216" height="272" viewBox="0 0 216 272" fill="none" xmlns="http://www.w3.org/2000/svg">
<path d="M207.758 190.192C192.019 199.807 175.595 208.109 158.248 214.43C147.35 218.401 136.143 221.321 124.752 223.2C125.93 224.369 127.095 225.55 128.247 226.736C137.911 236.675 147.058 247.188 157.764 256.044C160.833 258.452 164.036 260.683 167.26 262.882L215.683 271.151V185.217C213.058 186.902 210.42 188.568 207.758 190.196V190.192Z" fill="url(#paint0_linear_121_336)"/>
<path d="M11.1875 164.432C16.4953 165.179 21.7622 166.241 26.951 167.517C31.5903 168.657 36.1762 169.99 40.7334 171.422C41.1559 171.254 41.5866 171.118 42.0173 171.028C43.8959 170.638 45.7418 170.126 47.5466 169.494C50.381 168.288 53.0759 166.791 55.6068 165.035C58.5191 162.763 61.1648 160.174 63.548 157.348C66.3824 153.661 68.7861 149.661 70.7756 145.457C72.1251 142.298 73.249 139.046 74.1391 135.723C74.7913 133.291 76.592 131.379 78.6881 130.099C80.9031 128.746 83.6637 128.692 86.1043 129.316C88.3767 129.898 90.6123 131.843 91.728 133.865C92.9708 136.117 93.1677 138.828 92.5114 141.281C91.1496 146.372 89.1848 151.241 86.9001 155.986C85.1568 159.604 83.1058 163.066 80.7267 166.303C77.958 170.068 74.9144 173.682 71.4155 176.795C69.7952 178.239 68.0929 179.597 66.3209 180.856C77.638 186.029 88.2619 192.321 98.1679 199.889C100.846 201.936 103.484 204.04 106.08 206.193C108 206.074 109.92 205.923 111.835 205.742C127.008 204.04 141.853 200.287 156.132 194.901C157.477 194.372 158.818 193.834 160.151 193.281C173.396 187.772 186.326 181.656 198.566 174.191C203.812 170.991 210.572 166.975 215.687 163.571V0L62.9245 18.401C52.7437 19.6275 44.3922 27.0519 41.9803 37.0195C20.6546 125.075 15.8308 145.268 11.1875 164.432Z" fill="url(#paint1_linear_121_336)"/>
<path d="M91.162 218.61C80.9524 210.505 69.9511 203.482 58.0967 198.027C50.7215 194.819 43.0961 192.28 35.4256 189.868C27.5992 187.403 19.6702 185.245 11.5895 183.81C9.94057 183.555 8.28752 183.334 6.63036 183.149C4.49738 191.87 2.49156 200.016 0.740052 207.104C-2.75885 221.276 6.5114 235.436 20.9008 237.893L130.286 256.573C126.069 252.311 121.959 247.934 117.816 243.582C109.424 234.767 100.596 226.317 91.162 218.614V218.61Z" fill="url(#paint2_linear_121_336)"/>
<defs>
<linearGradient id="paint0_linear_121_336" x1="170.218" y1="9.50831" x2="170.218" y2="250.104" gradientUnits="userSpaceOnUse">
<stop stop-color="#3DA2DB"/>
<stop offset="1" stop-color="#006096"/>
</linearGradient>
<linearGradient id="paint1_linear_121_336" x1="113.435" y1="9.50817" x2="113.435" y2="250.104" gradientUnits="userSpaceOnUse">
<stop stop-color="#3DA2DB"/>
<stop offset="1" stop-color="#006096"/>
</linearGradient>
<linearGradient id="paint2_linear_121_336" x1="65.1437" y1="9.50826" x2="65.1437" y2="250.104" gradientUnits="userSpaceOnUse">
<stop stop-color="#3DA2DB"/>
<stop offset="1" stop-color="#006096"/>
</linearGradient>
</defs>
</svg>
