<svg width="55" height="76" viewBox="0 0 55 76" fill="none" xmlns="http://www.w3.org/2000/svg">
<path d="M54.9647 43.9133C54.8583 43.5041 54.4945 43.1918 54.072 43.1502C53.9256 43.1348 53.7837 43.1502 53.6558 43.1887C53.6558 43.1887 53.6542 43.1892 53.6511 43.1902C53.5571 43.2195 53.4707 43.2595 53.3937 43.3118C52.7076 43.6256 51.9799 43.8564 51.2198 43.9979C50.6571 44.1026 50.0758 44.1795 49.4838 44.1564C48.4123 44.1133 47.7016 43.9872 47.7016 43.9872C47.7016 43.9872 47.6399 43.9764 47.6075 43.9687C47.35 43.9195 46.5946 43.7687 45.9162 43.5425C45.8653 43.5241 45.8068 43.5041 45.7466 43.4841C43.5096 42.7041 41.1075 42.2733 38.6084 42.2579C38.6084 42.2579 38.6068 42.2564 38.6068 42.2533C38.593 42.2548 38.5775 42.2548 38.5621 42.2548C38.5575 42.2548 38.556 42.2548 38.5529 42.2564H38.5467C38.5174 42.2548 38.4912 42.2548 38.4619 42.2548C38.1952 42.2548 37.9285 42.2594 37.6633 42.2702H37.6587C37.2609 42.2717 36.9125 42.2656 36.6257 42.2548C36.5872 42.2548 36.5517 42.2533 36.5193 42.2533H36.5008C36.3713 42.2518 36.2449 42.2471 36.1185 42.2379C35.9967 42.2318 35.8764 42.2225 35.7562 42.2102C35.7438 42.2102 35.7315 42.2102 35.7207 42.2087C31.9558 42.2087 29.4982 41.4733 27.8964 40.4809C26.9636 39.9825 25.9646 38.7102 25.9646 38.7102C25.2831 37.7563 25.038 36.804 24.9532 36.144C24.9131 35.9793 24.89 35.8086 24.89 35.6332C24.89 35.5101 24.9023 35.3901 24.9224 35.2716C24.9224 35.2686 24.9224 35.2655 24.9224 35.2655C25.095 34.247 25.9707 33.4685 27.0345 33.4424C27.053 33.4408 27.07 33.4378 27.0885 33.4378C27.1193 33.4378 27.1486 33.4424 27.1795 33.4439C28.5347 33.4639 29.8606 33.607 31.1448 33.8624C31.6397 33.9608 32.15 33.7793 32.4723 33.3916C32.9101 32.8654 33.3233 32.3193 33.7118 31.7516C33.8583 31.5362 34.0032 31.3162 34.1435 31.0962C34.2221 30.9716 34.2992 30.8469 34.3763 30.7223C34.5151 30.4931 34.4133 30.1931 34.1605 30.1008C33.9801 30.0346 33.7858 29.9623 33.6502 29.9085C32.1362 29.3069 30.7039 28.5454 29.3734 27.6423C29.2161 27.533 29.0589 27.4254 28.9031 27.3115C28.2448 26.8638 27.5572 26.4515 26.8495 26.0746C27.6404 25.013 28.5239 24.0299 29.4998 23.1376C29.509 23.1284 30.5466 22.1745 30.801 21.9022C31.3283 21.3391 31.8031 20.736 32.2287 20.1068C35.6159 19.6775 38.7363 18.0698 41.0582 15.539C41.6811 14.8605 42.233 14.1282 42.7094 13.3574C46.5237 11.0712 49.1092 7.09733 49.6318 2.70187C49.7043 2.09263 49.268 1.54031 48.6574 1.468C48.0469 1.39569 47.4934 1.83109 47.421 2.44033C47.1311 4.88037 46.0843 7.16348 44.4901 8.99428C44.726 7.95426 44.8493 6.88348 44.8493 5.7973C44.8493 4.04958 44.5394 2.34186 43.9289 0.720298C43.7131 0.146442 43.0717 -0.144332 42.4951 0.0710566C41.92 0.286445 41.6286 0.927994 41.8445 1.50185C42.361 2.87264 42.6231 4.31728 42.6231 5.7973C42.6231 11.4328 38.8581 16.1852 33.5839 17.5852C34.3038 15.8513 34.6862 13.9805 34.6862 12.0589C34.6862 10.1374 34.2838 8.12503 33.4898 6.30654C33.2447 5.745 32.5894 5.48653 32.0252 5.73115C31.4624 5.97577 31.2034 6.62963 31.4485 7.19271C32.1192 8.72966 32.4584 10.3666 32.4584 12.0589C32.4584 15.1621 31.2897 18.119 29.1699 20.3868C29.0342 20.5314 28.2741 21.2422 27.9935 21.4991C26.811 22.5791 25.7534 23.7791 24.8191 25.0792C23.8848 23.7776 22.8271 22.5791 21.6446 21.4991C21.3625 21.2422 20.6024 20.5314 20.4683 20.3868C18.3484 18.1206 17.1798 15.1621 17.1798 12.0589C17.1798 10.3666 17.5189 8.72966 18.1896 7.19271C18.4347 6.62963 18.1773 5.97577 17.613 5.73115C17.0502 5.48653 16.3935 5.74346 16.1483 6.30654C15.3543 8.12503 14.9535 10.0605 14.9535 12.0589C14.9535 14.0574 15.3358 15.8513 16.0558 17.5852C10.7831 16.1852 7.01661 11.4328 7.01661 5.7973C7.01661 4.31882 7.27871 2.87264 7.79519 1.50185C8.01103 0.927994 7.72118 0.287983 7.14457 0.0710566C6.56951 -0.144332 5.92814 0.146442 5.71076 0.720298C5.10023 2.34186 4.79034 4.04958 4.79034 5.7973C4.79034 6.88348 4.91368 7.95426 5.14956 8.99428C3.55541 7.16348 2.51011 4.87883 2.21872 2.43879C2.14626 1.82955 1.59277 1.39416 0.982244 1.46646C0.371717 1.53877 -0.0645961 2.09109 0.00786546 2.70033C0.530514 7.09579 3.11756 11.0682 6.93181 13.3559C7.40821 14.1282 7.95861 14.859 8.58302 15.5375C10.9049 18.0683 14.0254 19.676 17.4126 20.1052C17.8381 20.7345 18.3114 21.3376 18.8387 21.9006C19.0915 22.1714 20.1291 23.1268 20.1399 23.136C20.4313 23.4022 20.7103 23.6776 20.9848 23.9591C19.5278 23.6561 18.0185 23.4914 16.4706 23.4914C15.4206 23.4914 14.3846 23.5668 13.3717 23.7084C15.1971 25.6992 17.3848 27.353 19.8285 28.57C17.6562 30.9162 15.9895 33.7347 14.9982 36.8517C14.5434 38.2871 14.2304 39.784 14.0793 41.3287C14.0084 42.0456 13.9699 42.7764 13.9699 43.5148C13.9699 43.9349 13.9822 44.3518 14.0053 44.7656C14.1271 46.9072 14.6914 49.0026 15.6303 50.9334C18.9774 57.8166 20.8553 65.5414 20.8553 73.7046C20.8553 73.9292 20.8537 74.1523 20.8506 74.3754C20.8383 75.2692 21.566 75.9985 22.4633 76H22.6082C23.5009 76 24.224 75.28 24.224 74.3892V59.5997C24.224 58.6689 25.0195 57.9459 25.9507 58.0089C29.0049 58.2166 32.87 57.7259 38.0719 56.1181C39.4055 57.9428 41.012 59.5566 42.8343 60.8951C43.01 61.0244 44.2373 61.9659 45.5354 62.7982C46.3633 63.329 47.4132 63.8598 47.6121 63.9598C47.7355 64.0213 47.8604 64.0813 47.9852 64.1413C48.8748 64.5367 48.8748 65.9968 48.0623 69.066C47.6322 70.6907 47.0849 72.5399 46.6655 73.92C46.351 74.9554 47.128 76 48.2119 75.9985C48.9195 75.9985 49.5439 75.5369 49.7536 74.8615L53.2888 63.4059C52.8833 63.129 52.4964 62.8259 52.1325 62.4982C49.8723 60.4674 48.5927 57.5443 48.5819 54.5089C48.5819 54.4843 48.5819 54.4596 48.5819 54.435C48.5819 53.4366 48.6482 52.4535 48.7777 51.4904C49.0259 49.6365 50.1976 48.0565 51.855 47.1795C51.9583 47.1241 52.06 47.0688 52.1618 47.0103C52.8047 46.6395 53.3998 46.1934 53.9348 45.6872C54.1707 45.4641 54.6733 44.9795 54.8799 44.6502C55.0079 44.4456 55.031 44.1749 54.9616 43.9072L54.9647 43.9133Z" fill="#F9F9F9"/>
</svg>
