<svg width="56" height="70" viewBox="0 0 56 70" fill="none" xmlns="http://www.w3.org/2000/svg">
<path d="M53.6347 49.0997C49.5716 51.5819 45.3316 53.7252 40.8533 55.357C38.0397 56.3821 35.1467 57.136 32.2061 57.621C32.51 57.9228 32.8107 58.2278 33.1083 58.5338C35.6031 61.0996 37.9646 63.8137 40.7284 66.0999C41.5205 66.7215 42.3475 67.2976 43.1798 67.8652L55.6806 70V47.8153C55.0029 48.2505 54.322 48.6804 53.6347 49.1008V49.0997Z" fill="#F9F9F9"/>
<path d="M2.88806 42.4496C4.25833 42.6423 5.618 42.9166 6.95756 43.2459C8.15522 43.5403 9.33911 43.8845 10.5156 44.2541C10.6247 44.2106 10.7358 44.1757 10.847 44.1524C11.332 44.0518 11.8086 43.9194 12.2745 43.7564C13.0062 43.445 13.7019 43.0585 14.3553 42.6053C15.1071 42.0186 15.7902 41.3504 16.4054 40.6208C17.1371 39.6689 17.7577 38.6364 18.2712 37.551C18.6196 36.7356 18.9098 35.8959 19.1396 35.0381C19.3079 34.4102 19.7728 33.9167 20.3139 33.5863C20.8858 33.2369 21.5984 33.2231 22.2285 33.3841C22.8151 33.5344 23.3923 34.0364 23.6803 34.5584C24.0012 35.1398 24.052 35.8397 23.8826 36.473C23.531 37.7871 23.0238 39.0441 22.4339 40.2693C21.9839 41.2033 21.4544 42.097 20.8402 42.9325C20.1254 43.9046 19.3397 44.8375 18.4364 45.6413C18.0182 46.014 17.5787 46.3645 17.1212 46.6896C20.0428 48.0249 22.7855 49.6493 25.3428 51.6031C26.0343 52.1315 26.7152 52.6747 27.3855 53.2307C27.8811 53.2 28.3767 53.1608 28.8712 53.1142C32.7882 52.6747 36.6205 51.7058 40.3067 50.3154C40.654 50.1788 41.0003 50.0401 41.3444 49.8971C44.7637 48.475 48.1015 46.8961 51.2614 44.9688C52.6158 44.1429 54.3609 43.1062 55.6814 42.2272V0L16.2444 4.75039C13.6162 5.06702 11.4602 6.98369 10.8375 9.55691C5.33209 32.2891 4.08678 37.5023 2.88806 42.4496Z" fill="#F9F9F9"/>
<path d="M23.5343 56.4361C20.8986 54.3436 18.0585 52.5307 14.9982 51.1223C13.0942 50.2942 11.1256 49.6387 9.14542 49.0161C7.12497 48.3797 5.07805 47.8227 2.99194 47.452C2.56625 47.3864 2.1395 47.3292 1.71168 47.2815C1.16104 49.5328 0.643217 51.6359 0.191051 53.4657C-0.712223 57.1244 1.68098 60.7798 5.39573 61.4141L33.6344 66.2365C32.5458 65.1363 31.4848 64.0064 30.4152 62.8829C28.2487 60.6072 25.9698 58.4258 23.5343 56.4371V56.4361Z" fill="#F9F9F9"/>
</svg>
